<?xml version="1.0" encoding="utf-8" standalone="no"?>
<!DOCTYPE svg PUBLIC "-//W3C//DTD SVG 1.1//EN"
  "http://www.w3.org/Graphics/SVG/1.1/DTD/svg11.dtd">
<!-- Created with matplotlib (http://matplotlib.org/) -->
<svg height="345pt" version="1.1" viewBox="0 0 460 345" width="460pt" xmlns="http://www.w3.org/2000/svg" xmlns:xlink="http://www.w3.org/1999/xlink">
 <defs>
  <style type="text/css">
*{stroke-linecap:butt;stroke-linejoin:round;}
  </style>
 </defs>
 <g id="figure_1">
  <g id="patch_1">
   <path d="M 0 345.6 
L 460.8 345.6 
L 460.8 0 
L 0 0 
z
" style="fill:#ffffff;"/>
  </g>
  <g id="axes_1">
   <g id="patch_2">
    <path d="M 57.6 307.584 
L 414.72 307.584 
L 414.72 41.472 
L 57.6 41.472 
z
" style="fill:#ffffff;"/>
   </g>
   <g id="PolyCollection_1">
    <path clip-path="url(#p4028e83679)" d="M 57.6 262.8999 
L 57.6 263.5641 
L 76.395789 264.424547 
L 95.191579 263.891253 
L 113.987368 264.814164 
L 132.783158 263.393838 
L 151.578947 261.46593 
L 170.374737 257.752027 
L 189.170526 256.720934 
L 207.966316 257.253616 
L 226.762105 256.479256 
L 245.557895 253.421313 
L 264.353684 251.745042 
L 283.149474 252.725285 
L 301.945263 251.346961 
L 320.741053 250.178404 
L 339.536842 247.12138 
L 358.332632 248.575325 
L 377.128421 247.197361 
L 395.924211 243.273831 
L 414.72 241.665218 
L 414.72 240.668542 
L 414.72 240.668542 
L 395.924211 241.499289 
L 377.128421 240.015119 
L 358.332632 241.076515 
L 339.536842 244.96982 
L 320.741053 244.352156 
L 301.945263 245.622959 
L 283.149474 246.683995 
L 264.353684 250.103598 
L 245.557895 250.866687 
L 226.762105 250.248104 
L 207.966316 251.913104 
L 189.170526 252.002266 
L 170.374737 256.293413 
L 151.578947 256.12767 
L 132.783158 257.747922 
L 113.987368 258.101676 
L 95.191579 260.798667 
L 76.395789 261.152413 
L 57.6 262.8999 
z
" style="fill:#1f77b4;fill-opacity:0.4;"/>
   </g>
   <g id="PolyCollection_2">
    <path clip-path="url(#p4028e83679)" d="M 57.6 301.049211 
L 57.6 305.248389 
L 76.395789 305.330456 
L 95.191579 305.141145 
L 113.987368 305.820113 
L 132.783158 305.29825 
L 151.578947 304.749093 
L 170.374737 305.262861 
L 189.170526 303.81846 
L 207.966316 304.200163 
L 226.762105 304.81868 
L 245.557895 305.395047 
L 264.353684 306.338036 
L 283.149474 304.474784 
L 301.945263 305.481679 
L 320.741053 303.998731 
L 339.536842 304.092549 
L 358.332632 305.003861 
L 377.128421 302.777407 
L 395.924211 303.793808 
L 414.72 303.087181 
L 414.72 300.450457 
L 414.72 300.450457 
L 395.924211 299.911101 
L 377.128421 301.094773 
L 358.332632 299.035589 
L 339.536842 300.114171 
L 320.741053 300.37526 
L 301.945263 299.059581 
L 283.149474 300.233747 
L 264.353684 298.537765 
L 245.557895 299.648025 
L 226.762105 300.391662 
L 207.966316 301.17745 
L 189.170526 301.726423 
L 170.374737 300.449293 
L 151.578947 300.838875 
L 132.783158 300.733238 
L 113.987368 300.654895 
L 95.191579 301.511271 
L 76.395789 301.410664 
L 57.6 301.049211 
z
" style="fill:#ff7f0e;fill-opacity:0.4;"/>
   </g>
   <g id="PolyCollection_3">
    <path clip-path="url(#p4028e83679)" d="M 57.6 198.445071 
L 57.6 203.833329 
L 76.395789 194.234444 
L 95.191579 190.992167 
L 113.987368 175.225787 
L 132.783158 173.612755 
L 151.578947 163.476658 
L 170.374737 155.16525 
L 189.170526 149.006149 
L 207.966316 139.779478 
L 226.762105 131.944835 
L 245.557895 124.346475 
L 264.353684 115.606917 
L 283.149474 107.965079 
L 301.945263 98.688294 
L 320.741053 90.95007 
L 339.536842 85.10419 
L 358.332632 74.758662 
L 377.128421 68.495491 
L 395.924211 59.751589 
L 414.72 52.843346 
L 414.72 46.067374 
L 414.72 46.067374 
L 395.924211 55.125851 
L 377.128421 62.348669 
L 358.332632 72.052218 
L 339.536842 77.67341 
L 320.741053 87.79425 
L 301.945263 96.022746 
L 283.149474 102.712681 
L 264.353684 111.037563 
L 245.557895 118.264725 
L 226.762105 126.633085 
L 207.966316 134.765162 
L 189.170526 141.505211 
L 170.374737 151.31283 
L 151.578947 158.968142 
L 132.783158 166.572845 
L 113.987368 173.830213 
L 95.191579 184.675033 
L 76.395789 190.303156 
L 57.6 198.445071 
z
" style="fill:#2ca02c;fill-opacity:0.4;"/>
   </g>
   <g id="matplotlib.axis_1">
    <g id="xtick_1">
     <g id="line2d_1">
      <path clip-path="url(#p4028e83679)" d="M 85.793684 307.584 
L 85.793684 41.472 
" style="fill:none;stroke:#b0b0b0;stroke-linecap:square;stroke-width:0.8;"/>
     </g>
     <g id="line2d_2">
      <defs>
       <path d="M 0 0 
L 0 3.5 
" id="m2e53bf4475" style="stroke:#000000;stroke-width:0.8;"/>
      </defs>
      <g>
       <use style="stroke:#000000;stroke-width:0.8;" x="85.793684" xlink:href="#m2e53bf4475" y="307.584"/>
      </g>
     </g>
     <g id="text_1">
      <!-- 2.5 -->
      <defs>
       <path d="M 19.1875 8.296875 
L 53.609375 8.296875 
L 53.609375 0 
L 7.328125 0 
L 7.328125 8.296875 
Q 12.9375 14.109375 22.625 23.890625 
Q 32.328125 33.6875 34.8125 36.53125 
Q 39.546875 41.84375 41.421875 45.53125 
Q 43.3125 49.21875 43.3125 52.78125 
Q 43.3125 58.59375 39.234375 62.25 
Q 35.15625 65.921875 28.609375 65.921875 
Q 23.96875 65.921875 18.8125 64.3125 
Q 13.671875 62.703125 7.8125 59.421875 
L 7.8125 69.390625 
Q 13.765625 71.78125 18.9375 73 
Q 24.125 74.21875 28.421875 74.21875 
Q 39.75 74.21875 46.484375 68.546875 
Q 53.21875 62.890625 53.21875 53.421875 
Q 53.21875 48.921875 51.53125 44.890625 
Q 49.859375 40.875 45.40625 35.40625 
Q 44.1875 33.984375 37.640625 27.21875 
Q 31.109375 20.453125 19.1875 8.296875 
z
" id="DejaVuSans-32"/>
       <path d="M 10.6875 12.40625 
L 21 12.40625 
L 21 0 
L 10.6875 0 
z
" id="DejaVuSans-2e"/>
       <path d="M 10.796875 72.90625 
L 49.515625 72.90625 
L 49.515625 64.59375 
L 19.828125 64.59375 
L 19.828125 46.734375 
Q 21.96875 47.46875 24.109375 47.828125 
Q 26.265625 48.1875 28.421875 48.1875 
Q 40.625 48.1875 47.75 41.5 
Q 54.890625 34.8125 54.890625 23.390625 
Q 54.890625 11.625 47.5625 5.09375 
Q 40.234375 -1.421875 26.90625 -1.421875 
Q 22.3125 -1.421875 17.546875 -0.640625 
Q 12.796875 0.140625 7.71875 1.703125 
L 7.71875 11.625 
Q 12.109375 9.234375 16.796875 8.0625 
Q 21.484375 6.890625 26.703125 6.890625 
Q 35.15625 6.890625 40.078125 11.328125 
Q 45.015625 15.765625 45.015625 23.390625 
Q 45.015625 31 40.078125 35.4375 
Q 35.15625 39.890625 26.703125 39.890625 
Q 22.75 39.890625 18.8125 39.015625 
Q 14.890625 38.140625 10.796875 36.28125 
z
" id="DejaVuSans-35"/>
      </defs>
      <g transform="translate(77.842122 322.182437)scale(0.1 -0.1)">
       <use xlink:href="#DejaVuSans-32"/>
       <use x="63.623047" xlink:href="#DejaVuSans-2e"/>
       <use x="95.410156" xlink:href="#DejaVuSans-35"/>
      </g>
     </g>
    </g>
    <g id="xtick_2">
     <g id="line2d_3">
      <path clip-path="url(#p4028e83679)" d="M 132.783158 307.584 
L 132.783158 41.472 
" style="fill:none;stroke:#b0b0b0;stroke-linecap:square;stroke-width:0.8;"/>
     </g>
     <g id="line2d_4">
      <g>
       <use style="stroke:#000000;stroke-width:0.8;" x="132.783158" xlink:href="#m2e53bf4475" y="307.584"/>
      </g>
     </g>
     <g id="text_2">
      <!-- 5.0 -->
      <defs>
       <path d="M 31.78125 66.40625 
Q 24.171875 66.40625 20.328125 58.90625 
Q 16.5 51.421875 16.5 36.375 
Q 16.5 21.390625 20.328125 13.890625 
Q 24.171875 6.390625 31.78125 6.390625 
Q 39.453125 6.390625 43.28125 13.890625 
Q 47.125 21.390625 47.125 36.375 
Q 47.125 51.421875 43.28125 58.90625 
Q 39.453125 66.40625 31.78125 66.40625 
z
M 31.78125 74.21875 
Q 44.046875 74.21875 50.515625 64.515625 
Q 56.984375 54.828125 56.984375 36.375 
Q 56.984375 17.96875 50.515625 8.265625 
Q 44.046875 -1.421875 31.78125 -1.421875 
Q 19.53125 -1.421875 13.0625 8.265625 
Q 6.59375 17.96875 6.59375 36.375 
Q 6.59375 54.828125 13.0625 64.515625 
Q 19.53125 74.21875 31.78125 74.21875 
z
" id="DejaVuSans-30"/>
      </defs>
      <g transform="translate(124.831595 322.182437)scale(0.1 -0.1)">
       <use xlink:href="#DejaVuSans-35"/>
       <use x="63.623047" xlink:href="#DejaVuSans-2e"/>
       <use x="95.410156" xlink:href="#DejaVuSans-30"/>
      </g>
     </g>
    </g>
    <g id="xtick_3">
     <g id="line2d_5">
      <path clip-path="url(#p4028e83679)" d="M 179.772632 307.584 
L 179.772632 41.472 
" style="fill:none;stroke:#b0b0b0;stroke-linecap:square;stroke-width:0.8;"/>
     </g>
     <g id="line2d_6">
      <g>
       <use style="stroke:#000000;stroke-width:0.8;" x="179.772632" xlink:href="#m2e53bf4475" y="307.584"/>
      </g>
     </g>
     <g id="text_3">
      <!-- 7.5 -->
      <defs>
       <path d="M 8.203125 72.90625 
L 55.078125 72.90625 
L 55.078125 68.703125 
L 28.609375 0 
L 18.3125 0 
L 43.21875 64.59375 
L 8.203125 64.59375 
z
" id="DejaVuSans-37"/>
      </defs>
      <g transform="translate(171.821069 322.182437)scale(0.1 -0.1)">
       <use xlink:href="#DejaVuSans-37"/>
       <use x="63.623047" xlink:href="#DejaVuSans-2e"/>
       <use x="95.410156" xlink:href="#DejaVuSans-35"/>
      </g>
     </g>
    </g>
    <g id="xtick_4">
     <g id="line2d_7">
      <path clip-path="url(#p4028e83679)" d="M 226.762105 307.584 
L 226.762105 41.472 
" style="fill:none;stroke:#b0b0b0;stroke-linecap:square;stroke-width:0.8;"/>
     </g>
     <g id="line2d_8">
      <g>
       <use style="stroke:#000000;stroke-width:0.8;" x="226.762105" xlink:href="#m2e53bf4475" y="307.584"/>
      </g>
     </g>
     <g id="text_4">
      <!-- 10.0 -->
      <defs>
       <path d="M 12.40625 8.296875 
L 28.515625 8.296875 
L 28.515625 63.921875 
L 10.984375 60.40625 
L 10.984375 69.390625 
L 28.421875 72.90625 
L 38.28125 72.90625 
L 38.28125 8.296875 
L 54.390625 8.296875 
L 54.390625 0 
L 12.40625 0 
z
" id="DejaVuSans-31"/>
      </defs>
      <g transform="translate(215.629293 322.182437)scale(0.1 -0.1)">
       <use xlink:href="#DejaVuSans-31"/>
       <use x="63.623047" xlink:href="#DejaVuSans-30"/>
       <use x="127.246094" xlink:href="#DejaVuSans-2e"/>
       <use x="159.033203" xlink:href="#DejaVuSans-30"/>
      </g>
     </g>
    </g>
    <g id="xtick_5">
     <g id="line2d_9">
      <path clip-path="url(#p4028e83679)" d="M 273.751579 307.584 
L 273.751579 41.472 
" style="fill:none;stroke:#b0b0b0;stroke-linecap:square;stroke-width:0.8;"/>
     </g>
     <g id="line2d_10">
      <g>
       <use style="stroke:#000000;stroke-width:0.8;" x="273.751579" xlink:href="#m2e53bf4475" y="307.584"/>
      </g>
     </g>
     <g id="text_5">
      <!-- 12.5 -->
      <g transform="translate(262.618766 322.182437)scale(0.1 -0.1)">
       <use xlink:href="#DejaVuSans-31"/>
       <use x="63.623047" xlink:href="#DejaVuSans-32"/>
       <use x="127.246094" xlink:href="#DejaVuSans-2e"/>
       <use x="159.033203" xlink:href="#DejaVuSans-35"/>
      </g>
     </g>
    </g>
    <g id="xtick_6">
     <g id="line2d_11">
      <path clip-path="url(#p4028e83679)" d="M 320.741053 307.584 
L 320.741053 41.472 
" style="fill:none;stroke:#b0b0b0;stroke-linecap:square;stroke-width:0.8;"/>
     </g>
     <g id="line2d_12">
      <g>
       <use style="stroke:#000000;stroke-width:0.8;" x="320.741053" xlink:href="#m2e53bf4475" y="307.584"/>
      </g>
     </g>
     <g id="text_6">
      <!-- 15.0 -->
      <g transform="translate(309.60824 322.182437)scale(0.1 -0.1)">
       <use xlink:href="#DejaVuSans-31"/>
       <use x="63.623047" xlink:href="#DejaVuSans-35"/>
       <use x="127.246094" xlink:href="#DejaVuSans-2e"/>
       <use x="159.033203" xlink:href="#DejaVuSans-30"/>
      </g>
     </g>
    </g>
    <g id="xtick_7">
     <g id="line2d_13">
      <path clip-path="url(#p4028e83679)" d="M 367.730526 307.584 
L 367.730526 41.472 
" style="fill:none;stroke:#b0b0b0;stroke-linecap:square;stroke-width:0.8;"/>
     </g>
     <g id="line2d_14">
      <g>
       <use style="stroke:#000000;stroke-width:0.8;" x="367.730526" xlink:href="#m2e53bf4475" y="307.584"/>
      </g>
     </g>
     <g id="text_7">
      <!-- 17.5 -->
      <g transform="translate(356.597714 322.182437)scale(0.1 -0.1)">
       <use xlink:href="#DejaVuSans-31"/>
       <use x="63.623047" xlink:href="#DejaVuSans-37"/>
       <use x="127.246094" xlink:href="#DejaVuSans-2e"/>
       <use x="159.033203" xlink:href="#DejaVuSans-35"/>
      </g>
     </g>
    </g>
    <g id="xtick_8">
     <g id="line2d_15">
      <path clip-path="url(#p4028e83679)" d="M 414.72 307.584 
L 414.72 41.472 
" style="fill:none;stroke:#b0b0b0;stroke-linecap:square;stroke-width:0.8;"/>
     </g>
     <g id="line2d_16">
      <g>
       <use style="stroke:#000000;stroke-width:0.8;" x="414.72" xlink:href="#m2e53bf4475" y="307.584"/>
      </g>
     </g>
     <g id="text_8">
      <!-- 20.0 -->
      <g transform="translate(403.587187 322.182437)scale(0.1 -0.1)">
       <use xlink:href="#DejaVuSans-32"/>
       <use x="63.623047" xlink:href="#DejaVuSans-30"/>
       <use x="127.246094" xlink:href="#DejaVuSans-2e"/>
       <use x="159.033203" xlink:href="#DejaVuSans-30"/>
      </g>
     </g>
    </g>
    <g id="text_9">
     <!-- axe x -->
     <defs>
      <path d="M 34.28125 27.484375 
Q 23.390625 27.484375 19.1875 25 
Q 14.984375 22.515625 14.984375 16.5 
Q 14.984375 11.71875 18.140625 8.90625 
Q 21.296875 6.109375 26.703125 6.109375 
Q 34.1875 6.109375 38.703125 11.40625 
Q 43.21875 16.703125 43.21875 25.484375 
L 43.21875 27.484375 
z
M 52.203125 31.203125 
L 52.203125 0 
L 43.21875 0 
L 43.21875 8.296875 
Q 40.140625 3.328125 35.546875 0.953125 
Q 30.953125 -1.421875 24.3125 -1.421875 
Q 15.921875 -1.421875 10.953125 3.296875 
Q 6 8.015625 6 15.921875 
Q 6 25.140625 12.171875 29.828125 
Q 18.359375 34.515625 30.609375 34.515625 
L 43.21875 34.515625 
L 43.21875 35.40625 
Q 43.21875 41.609375 39.140625 45 
Q 35.0625 48.390625 27.6875 48.390625 
Q 23 48.390625 18.546875 47.265625 
Q 14.109375 46.140625 10.015625 43.890625 
L 10.015625 52.203125 
Q 14.9375 54.109375 19.578125 55.046875 
Q 24.21875 56 28.609375 56 
Q 40.484375 56 46.34375 49.84375 
Q 52.203125 43.703125 52.203125 31.203125 
z
" id="DejaVuSans-61"/>
      <path d="M 54.890625 54.6875 
L 35.109375 28.078125 
L 55.90625 0 
L 45.3125 0 
L 29.390625 21.484375 
L 13.484375 0 
L 2.875 0 
L 24.125 28.609375 
L 4.6875 54.6875 
L 15.28125 54.6875 
L 29.78125 35.203125 
L 44.28125 54.6875 
z
" id="DejaVuSans-78"/>
      <path d="M 56.203125 29.59375 
L 56.203125 25.203125 
L 14.890625 25.203125 
Q 15.484375 15.921875 20.484375 11.0625 
Q 25.484375 6.203125 34.421875 6.203125 
Q 39.59375 6.203125 44.453125 7.46875 
Q 49.3125 8.734375 54.109375 11.28125 
L 54.109375 2.78125 
Q 49.265625 0.734375 44.1875 -0.34375 
Q 39.109375 -1.421875 33.890625 -1.421875 
Q 20.796875 -1.421875 13.15625 6.1875 
Q 5.515625 13.8125 5.515625 26.8125 
Q 5.515625 40.234375 12.765625 48.109375 
Q 20.015625 56 32.328125 56 
Q 43.359375 56 49.78125 48.890625 
Q 56.203125 41.796875 56.203125 29.59375 
z
M 47.21875 32.234375 
Q 47.125 39.59375 43.09375 43.984375 
Q 39.0625 48.390625 32.421875 48.390625 
Q 24.90625 48.390625 20.390625 44.140625 
Q 15.875 39.890625 15.1875 32.171875 
z
" id="DejaVuSans-65"/>
      <path id="DejaVuSans-20"/>
     </defs>
     <g transform="translate(222.513906 335.860562)scale(0.1 -0.1)">
      <use xlink:href="#DejaVuSans-61"/>
      <use x="61.279297" xlink:href="#DejaVuSans-78"/>
      <use x="120.412109" xlink:href="#DejaVuSans-65"/>
      <use x="181.935547" xlink:href="#DejaVuSans-20"/>
      <use x="213.722656" xlink:href="#DejaVuSans-78"/>
     </g>
    </g>
   </g>
   <g id="matplotlib.axis_2">
    <g id="ytick_1">
     <g id="line2d_17">
      <path clip-path="url(#p4028e83679)" d="M 57.6 307.584 
L 414.72 307.584 
" style="fill:none;stroke:#b0b0b0;stroke-linecap:square;stroke-width:0.8;"/>
     </g>
     <g id="line2d_18">
      <defs>
       <path d="M 0 0 
L -3.5 0 
" id="m91488c15e0" style="stroke:#000000;stroke-width:0.8;"/>
      </defs>
      <g>
       <use style="stroke:#000000;stroke-width:0.8;" x="57.6" xlink:href="#m91488c15e0" y="307.584"/>
      </g>
     </g>
     <g id="text_10">
      <!-- 0 -->
      <g transform="translate(44.2375 311.383219)scale(0.1 -0.1)">
       <use xlink:href="#DejaVuSans-30"/>
      </g>
     </g>
    </g>
    <g id="ytick_2">
     <g id="line2d_19">
      <path clip-path="url(#p4028e83679)" d="M 57.6 263.232 
L 414.72 263.232 
" style="fill:none;stroke:#b0b0b0;stroke-linecap:square;stroke-width:0.8;"/>
     </g>
     <g id="line2d_20">
      <g>
       <use style="stroke:#000000;stroke-width:0.8;" x="57.6" xlink:href="#m91488c15e0" y="263.232"/>
      </g>
     </g>
     <g id="text_11">
      <!-- 10 -->
      <g transform="translate(37.875 267.031219)scale(0.1 -0.1)">
       <use xlink:href="#DejaVuSans-31"/>
       <use x="63.623047" xlink:href="#DejaVuSans-30"/>
      </g>
     </g>
    </g>
    <g id="ytick_3">
     <g id="line2d_21">
      <path clip-path="url(#p4028e83679)" d="M 57.6 218.88 
L 414.72 218.88 
" style="fill:none;stroke:#b0b0b0;stroke-linecap:square;stroke-width:0.8;"/>
     </g>
     <g id="line2d_22">
      <g>
       <use style="stroke:#000000;stroke-width:0.8;" x="57.6" xlink:href="#m91488c15e0" y="218.88"/>
      </g>
     </g>
     <g id="text_12">
      <!-- 20 -->
      <g transform="translate(37.875 222.679219)scale(0.1 -0.1)">
       <use xlink:href="#DejaVuSans-32"/>
       <use x="63.623047" xlink:href="#DejaVuSans-30"/>
      </g>
     </g>
    </g>
    <g id="ytick_4">
     <g id="line2d_23">
      <path clip-path="url(#p4028e83679)" d="M 57.6 174.528 
L 414.72 174.528 
" style="fill:none;stroke:#b0b0b0;stroke-linecap:square;stroke-width:0.8;"/>
     </g>
     <g id="line2d_24">
      <g>
       <use style="stroke:#000000;stroke-width:0.8;" x="57.6" xlink:href="#m91488c15e0" y="174.528"/>
      </g>
     </g>
     <g id="text_13">
      <!-- 30 -->
      <defs>
       <path d="M 40.578125 39.3125 
Q 47.65625 37.796875 51.625 33 
Q 55.609375 28.21875 55.609375 21.1875 
Q 55.609375 10.40625 48.1875 4.484375 
Q 40.765625 -1.421875 27.09375 -1.421875 
Q 22.515625 -1.421875 17.65625 -0.515625 
Q 12.796875 0.390625 7.625 2.203125 
L 7.625 11.71875 
Q 11.71875 9.328125 16.59375 8.109375 
Q 21.484375 6.890625 26.8125 6.890625 
Q 36.078125 6.890625 40.9375 10.546875 
Q 45.796875 14.203125 45.796875 21.1875 
Q 45.796875 27.640625 41.28125 31.265625 
Q 36.765625 34.90625 28.71875 34.90625 
L 20.21875 34.90625 
L 20.21875 43.015625 
L 29.109375 43.015625 
Q 36.375 43.015625 40.234375 45.921875 
Q 44.09375 48.828125 44.09375 54.296875 
Q 44.09375 59.90625 40.109375 62.90625 
Q 36.140625 65.921875 28.71875 65.921875 
Q 24.65625 65.921875 20.015625 65.03125 
Q 15.375 64.15625 9.8125 62.3125 
L 9.8125 71.09375 
Q 15.4375 72.65625 20.34375 73.4375 
Q 25.25 74.21875 29.59375 74.21875 
Q 40.828125 74.21875 47.359375 69.109375 
Q 53.90625 64.015625 53.90625 55.328125 
Q 53.90625 49.265625 50.4375 45.09375 
Q 46.96875 40.921875 40.578125 39.3125 
z
" id="DejaVuSans-33"/>
      </defs>
      <g transform="translate(37.875 178.327219)scale(0.1 -0.1)">
       <use xlink:href="#DejaVuSans-33"/>
       <use x="63.623047" xlink:href="#DejaVuSans-30"/>
      </g>
     </g>
    </g>
    <g id="ytick_5">
     <g id="line2d_25">
      <path clip-path="url(#p4028e83679)" d="M 57.6 130.176 
L 414.72 130.176 
" style="fill:none;stroke:#b0b0b0;stroke-linecap:square;stroke-width:0.8;"/>
     </g>
     <g id="line2d_26">
      <g>
       <use style="stroke:#000000;stroke-width:0.8;" x="57.6" xlink:href="#m91488c15e0" y="130.176"/>
      </g>
     </g>
     <g id="text_14">
      <!-- 40 -->
      <defs>
       <path d="M 37.796875 64.3125 
L 12.890625 25.390625 
L 37.796875 25.390625 
z
M 35.203125 72.90625 
L 47.609375 72.90625 
L 47.609375 25.390625 
L 58.015625 25.390625 
L 58.015625 17.1875 
L 47.609375 17.1875 
L 47.609375 0 
L 37.796875 0 
L 37.796875 17.1875 
L 4.890625 17.1875 
L 4.890625 26.703125 
z
" id="DejaVuSans-34"/>
      </defs>
      <g transform="translate(37.875 133.975219)scale(0.1 -0.1)">
       <use xlink:href="#DejaVuSans-34"/>
       <use x="63.623047" xlink:href="#DejaVuSans-30"/>
      </g>
     </g>
    </g>
    <g id="ytick_6">
     <g id="line2d_27">
      <path clip-path="url(#p4028e83679)" d="M 57.6 85.824 
L 414.72 85.824 
" style="fill:none;stroke:#b0b0b0;stroke-linecap:square;stroke-width:0.8;"/>
     </g>
     <g id="line2d_28">
      <g>
       <use style="stroke:#000000;stroke-width:0.8;" x="57.6" xlink:href="#m91488c15e0" y="85.824"/>
      </g>
     </g>
     <g id="text_15">
      <!-- 50 -->
      <g transform="translate(37.875 89.623219)scale(0.1 -0.1)">
       <use xlink:href="#DejaVuSans-35"/>
       <use x="63.623047" xlink:href="#DejaVuSans-30"/>
      </g>
     </g>
    </g>
    <g id="ytick_7">
     <g id="line2d_29">
      <path clip-path="url(#p4028e83679)" d="M 57.6 41.472 
L 414.72 41.472 
" style="fill:none;stroke:#b0b0b0;stroke-linecap:square;stroke-width:0.8;"/>
     </g>
     <g id="line2d_30">
      <g>
       <use style="stroke:#000000;stroke-width:0.8;" x="57.6" xlink:href="#m91488c15e0" y="41.472"/>
      </g>
     </g>
     <g id="text_16">
      <!-- 60 -->
      <defs>
       <path d="M 33.015625 40.375 
Q 26.375 40.375 22.484375 35.828125 
Q 18.609375 31.296875 18.609375 23.390625 
Q 18.609375 15.53125 22.484375 10.953125 
Q 26.375 6.390625 33.015625 6.390625 
Q 39.65625 6.390625 43.53125 10.953125 
Q 47.40625 15.53125 47.40625 23.390625 
Q 47.40625 31.296875 43.53125 35.828125 
Q 39.65625 40.375 33.015625 40.375 
z
M 52.59375 71.296875 
L 52.59375 62.3125 
Q 48.875 64.0625 45.09375 64.984375 
Q 41.3125 65.921875 37.59375 65.921875 
Q 27.828125 65.921875 22.671875 59.328125 
Q 17.53125 52.734375 16.796875 39.40625 
Q 19.671875 43.65625 24.015625 45.921875 
Q 28.375 48.1875 33.59375 48.1875 
Q 44.578125 48.1875 50.953125 41.515625 
Q 57.328125 34.859375 57.328125 23.390625 
Q 57.328125 12.15625 50.6875 5.359375 
Q 44.046875 -1.421875 33.015625 -1.421875 
Q 20.359375 -1.421875 13.671875 8.265625 
Q 6.984375 17.96875 6.984375 36.375 
Q 6.984375 53.65625 15.1875 63.9375 
Q 23.390625 74.21875 37.203125 74.21875 
Q 40.921875 74.21875 44.703125 73.484375 
Q 48.484375 72.75 52.59375 71.296875 
z
" id="DejaVuSans-36"/>
      </defs>
      <g transform="translate(37.875 45.271219)scale(0.1 -0.1)">
       <use xlink:href="#DejaVuSans-36"/>
       <use x="63.623047" xlink:href="#DejaVuSans-30"/>
      </g>
     </g>
    </g>
    <g id="text_17">
     <!-- axe y -->
     <defs>
      <path d="M 32.171875 -5.078125 
Q 28.375 -14.84375 24.75 -17.8125 
Q 21.140625 -20.796875 15.09375 -20.796875 
L 7.90625 -20.796875 
L 7.90625 -13.28125 
L 13.1875 -13.28125 
Q 16.890625 -13.28125 18.9375 -11.515625 
Q 21 -9.765625 23.484375 -3.21875 
L 25.09375 0.875 
L 2.984375 54.6875 
L 12.5 54.6875 
L 29.59375 11.921875 
L 46.6875 54.6875 
L 56.203125 54.6875 
z
" id="DejaVuSans-79"/>
     </defs>
     <g transform="translate(31.795313 188.174094)rotate(-90)scale(0.1 -0.1)">
      <use xlink:href="#DejaVuSans-61"/>
      <use x="61.279297" xlink:href="#DejaVuSans-78"/>
      <use x="120.412109" xlink:href="#DejaVuSans-65"/>
      <use x="181.935547" xlink:href="#DejaVuSans-20"/>
      <use x="213.722656" xlink:href="#DejaVuSans-79"/>
     </g>
    </g>
   </g>
   <g id="line2d_31">
    <path clip-path="url(#p4028e83679)" d="M 57.6 263.232 
L 76.395789 262.78848 
L 95.191579 262.34496 
L 113.987368 261.45792 
L 132.783158 260.57088 
L 151.578947 258.7968 
L 170.374737 257.02272 
L 189.170526 254.3616 
L 207.966316 254.58336 
L 226.762105 253.36368 
L 245.557895 252.144 
L 264.353684 250.92432 
L 283.149474 249.70464 
L 301.945263 248.48496 
L 320.741053 247.26528 
L 339.536842 246.0456 
L 358.332632 244.82592 
L 377.128421 243.60624 
L 395.924211 242.38656 
L 414.72 241.16688 
" style="fill:none;stroke:#0000ff;stroke-linecap:square;stroke-width:1.5;"/>
    <defs>
     <path d="M 0 3 
C 0.795609 3 1.55874 2.683901 2.12132 2.12132 
C 2.683901 1.55874 3 0.795609 3 0 
C 3 -0.795609 2.683901 -1.55874 2.12132 -2.12132 
C 1.55874 -2.683901 0.795609 -3 0 -3 
C -0.795609 -3 -1.55874 -2.683901 -2.12132 -2.12132 
C -2.683901 -1.55874 -3 -0.795609 -3 0 
C -3 0.795609 -2.683901 1.55874 -2.12132 2.12132 
C -1.55874 2.683901 -0.795609 3 0 3 
z
" id="m1f5aa5dbf4" style="stroke:#0000ff;"/>
    </defs>
    <g clip-path="url(#p4028e83679)">
     <use style="fill:#0000ff;stroke:#0000ff;" x="57.6" xlink:href="#m1f5aa5dbf4" y="263.232"/>
     <use style="fill:#0000ff;stroke:#0000ff;" x="76.395789" xlink:href="#m1f5aa5dbf4" y="262.78848"/>
     <use style="fill:#0000ff;stroke:#0000ff;" x="95.191579" xlink:href="#m1f5aa5dbf4" y="262.34496"/>
     <use style="fill:#0000ff;stroke:#0000ff;" x="113.987368" xlink:href="#m1f5aa5dbf4" y="261.45792"/>
     <use style="fill:#0000ff;stroke:#0000ff;" x="132.783158" xlink:href="#m1f5aa5dbf4" y="260.57088"/>
     <use style="fill:#0000ff;stroke:#0000ff;" x="151.578947" xlink:href="#m1f5aa5dbf4" y="258.7968"/>
     <use style="fill:#0000ff;stroke:#0000ff;" x="170.374737" xlink:href="#m1f5aa5dbf4" y="257.02272"/>
     <use style="fill:#0000ff;stroke:#0000ff;" x="189.170526" xlink:href="#m1f5aa5dbf4" y="254.3616"/>
     <use style="fill:#0000ff;stroke:#0000ff;" x="207.966316" xlink:href="#m1f5aa5dbf4" y="254.58336"/>
     <use style="fill:#0000ff;stroke:#0000ff;" x="226.762105" xlink:href="#m1f5aa5dbf4" y="253.36368"/>
     <use style="fill:#0000ff;stroke:#0000ff;" x="245.557895" xlink:href="#m1f5aa5dbf4" y="252.144"/>
     <use style="fill:#0000ff;stroke:#0000ff;" x="264.353684" xlink:href="#m1f5aa5dbf4" y="250.92432"/>
     <use style="fill:#0000ff;stroke:#0000ff;" x="283.149474" xlink:href="#m1f5aa5dbf4" y="249.70464"/>
     <use style="fill:#0000ff;stroke:#0000ff;" x="301.945263" xlink:href="#m1f5aa5dbf4" y="248.48496"/>
     <use style="fill:#0000ff;stroke:#0000ff;" x="320.741053" xlink:href="#m1f5aa5dbf4" y="247.26528"/>
     <use style="fill:#0000ff;stroke:#0000ff;" x="339.536842" xlink:href="#m1f5aa5dbf4" y="246.0456"/>
     <use style="fill:#0000ff;stroke:#0000ff;" x="358.332632" xlink:href="#m1f5aa5dbf4" y="244.82592"/>
     <use style="fill:#0000ff;stroke:#0000ff;" x="377.128421" xlink:href="#m1f5aa5dbf4" y="243.60624"/>
     <use style="fill:#0000ff;stroke:#0000ff;" x="395.924211" xlink:href="#m1f5aa5dbf4" y="242.38656"/>
     <use style="fill:#0000ff;stroke:#0000ff;" x="414.72" xlink:href="#m1f5aa5dbf4" y="241.16688"/>
    </g>
   </g>
   <g id="line2d_32">
    <path clip-path="url(#p4028e83679)" d="M 57.6 303.1488 
L 76.395789 303.37056 
L 95.191579 303.326208 
L 113.987368 303.237504 
L 132.783158 303.015744 
L 151.578947 302.793984 
L 170.374737 302.856077 
L 189.170526 302.772442 
L 207.966316 302.688806 
L 226.762105 302.605171 
L 245.557895 302.521536 
L 264.353684 302.437901 
L 283.149474 302.354266 
L 301.945263 302.27063 
L 320.741053 302.186995 
L 339.536842 302.10336 
L 358.332632 302.019725 
L 377.128421 301.93609 
L 395.924211 301.852454 
L 414.72 301.768819 
" style="fill:none;stroke:#ff0000;stroke-dasharray:5.55,2.4;stroke-dashoffset:0;stroke-width:1.5;"/>
    <defs>
     <path d="M -3 0 
L 3 0 
M 0 3 
L 0 -3 
" id="mae791ef67b" style="stroke:#ff0000;"/>
    </defs>
    <g clip-path="url(#p4028e83679)">
     <use style="fill:#ff0000;stroke:#ff0000;" x="57.6" xlink:href="#mae791ef67b" y="303.1488"/>
     <use style="fill:#ff0000;stroke:#ff0000;" x="76.395789" xlink:href="#mae791ef67b" y="303.37056"/>
     <use style="fill:#ff0000;stroke:#ff0000;" x="95.191579" xlink:href="#mae791ef67b" y="303.326208"/>
     <use style="fill:#ff0000;stroke:#ff0000;" x="113.987368" xlink:href="#mae791ef67b" y="303.237504"/>
     <use style="fill:#ff0000;stroke:#ff0000;" x="132.783158" xlink:href="#mae791ef67b" y="303.015744"/>
     <use style="fill:#ff0000;stroke:#ff0000;" x="151.578947" xlink:href="#mae791ef67b" y="302.793984"/>
     <use style="fill:#ff0000;stroke:#ff0000;" x="170.374737" xlink:href="#mae791ef67b" y="302.856077"/>
     <use style="fill:#ff0000;stroke:#ff0000;" x="189.170526" xlink:href="#mae791ef67b" y="302.772442"/>
     <use style="fill:#ff0000;stroke:#ff0000;" x="207.966316" xlink:href="#mae791ef67b" y="302.688806"/>
     <use style="fill:#ff0000;stroke:#ff0000;" x="226.762105" xlink:href="#mae791ef67b" y="302.605171"/>
     <use style="fill:#ff0000;stroke:#ff0000;" x="245.557895" xlink:href="#mae791ef67b" y="302.521536"/>
     <use style="fill:#ff0000;stroke:#ff0000;" x="264.353684" xlink:href="#mae791ef67b" y="302.437901"/>
     <use style="fill:#ff0000;stroke:#ff0000;" x="283.149474" xlink:href="#mae791ef67b" y="302.354266"/>
     <use style="fill:#ff0000;stroke:#ff0000;" x="301.945263" xlink:href="#mae791ef67b" y="302.27063"/>
     <use style="fill:#ff0000;stroke:#ff0000;" x="320.741053" xlink:href="#mae791ef67b" y="302.186995"/>
     <use style="fill:#ff0000;stroke:#ff0000;" x="339.536842" xlink:href="#mae791ef67b" y="302.10336"/>
     <use style="fill:#ff0000;stroke:#ff0000;" x="358.332632" xlink:href="#mae791ef67b" y="302.019725"/>
     <use style="fill:#ff0000;stroke:#ff0000;" x="377.128421" xlink:href="#mae791ef67b" y="301.93609"/>
     <use style="fill:#ff0000;stroke:#ff0000;" x="395.924211" xlink:href="#mae791ef67b" y="301.852454"/>
     <use style="fill:#ff0000;stroke:#ff0000;" x="414.72" xlink:href="#mae791ef67b" y="301.768819"/>
    </g>
   </g>
   <g id="line2d_33">
    <path clip-path="url(#p4028e83679)" d="M 57.6 201.1392 
L 76.395789 192.2688 
L 95.191579 187.8336 
L 113.987368 174.528 
L 132.783158 170.0928 
L 151.578947 161.2224 
L 170.374737 153.23904 
L 189.170526 145.25568 
L 207.966316 137.27232 
L 226.762105 129.28896 
L 245.557895 121.3056 
L 264.353684 113.32224 
L 283.149474 105.33888 
L 301.945263 97.35552 
L 320.741053 89.37216 
L 339.536842 81.3888 
L 358.332632 73.40544 
L 377.128421 65.42208 
L 395.924211 57.43872 
L 414.72 49.45536 
" style="fill:none;stroke:#008000;stroke-dasharray:9.6,2.4,1.5,2.4;stroke-dashoffset:0;stroke-width:1.5;"/>
    <defs>
     <path d="M -3 3 
L 3 3 
L 3 -3 
L -3 -3 
z
" id="m28c6256c09" style="stroke:#008000;stroke-linejoin:miter;"/>
    </defs>
    <g clip-path="url(#p4028e83679)">
     <use style="fill:#008000;stroke:#008000;stroke-linejoin:miter;" x="57.6" xlink:href="#m28c6256c09" y="201.1392"/>
     <use style="fill:#008000;stroke:#008000;stroke-linejoin:miter;" x="76.395789" xlink:href="#m28c6256c09" y="192.2688"/>
     <use style="fill:#008000;stroke:#008000;stroke-linejoin:miter;" x="95.191579" xlink:href="#m28c6256c09" y="187.8336"/>
     <use style="fill:#008000;stroke:#008000;stroke-linejoin:miter;" x="113.987368" xlink:href="#m28c6256c09" y="174.528"/>
     <use style="fill:#008000;stroke:#008000;stroke-linejoin:miter;" x="132.783158" xlink:href="#m28c6256c09" y="170.0928"/>
     <use style="fill:#008000;stroke:#008000;stroke-linejoin:miter;" x="151.578947" xlink:href="#m28c6256c09" y="161.2224"/>
     <use style="fill:#008000;stroke:#008000;stroke-linejoin:miter;" x="170.374737" xlink:href="#m28c6256c09" y="153.23904"/>
     <use style="fill:#008000;stroke:#008000;stroke-linejoin:miter;" x="189.170526" xlink:href="#m28c6256c09" y="145.25568"/>
     <use style="fill:#008000;stroke:#008000;stroke-linejoin:miter;" x="207.966316" xlink:href="#m28c6256c09" y="137.27232"/>
     <use style="fill:#008000;stroke:#008000;stroke-linejoin:miter;" x="226.762105" xlink:href="#m28c6256c09" y="129.28896"/>
     <use style="fill:#008000;stroke:#008000;stroke-linejoin:miter;" x="245.557895" xlink:href="#m28c6256c09" y="121.3056"/>
     <use style="fill:#008000;stroke:#008000;stroke-linejoin:miter;" x="264.353684" xlink:href="#m28c6256c09" y="113.32224"/>
     <use style="fill:#008000;stroke:#008000;stroke-linejoin:miter;" x="283.149474" xlink:href="#m28c6256c09" y="105.33888"/>
     <use style="fill:#008000;stroke:#008000;stroke-linejoin:miter;" x="301.945263" xlink:href="#m28c6256c09" y="97.35552"/>
     <use style="fill:#008000;stroke:#008000;stroke-linejoin:miter;" x="320.741053" xlink:href="#m28c6256c09" y="89.37216"/>
     <use style="fill:#008000;stroke:#008000;stroke-linejoin:miter;" x="339.536842" xlink:href="#m28c6256c09" y="81.3888"/>
     <use style="fill:#008000;stroke:#008000;stroke-linejoin:miter;" x="358.332632" xlink:href="#m28c6256c09" y="73.40544"/>
     <use style="fill:#008000;stroke:#008000;stroke-linejoin:miter;" x="377.128421" xlink:href="#m28c6256c09" y="65.42208"/>
     <use style="fill:#008000;stroke:#008000;stroke-linejoin:miter;" x="395.924211" xlink:href="#m28c6256c09" y="57.43872"/>
     <use style="fill:#008000;stroke:#008000;stroke-linejoin:miter;" x="414.72" xlink:href="#m28c6256c09" y="49.45536"/>
    </g>
   </g>
   <g id="patch_3">
    <path d="M 57.6 307.584 
L 57.6 41.472 
" style="fill:none;stroke:#000000;stroke-linecap:square;stroke-linejoin:miter;stroke-width:0.8;"/>
   </g>
   <g id="patch_4">
    <path d="M 414.72 307.584 
L 414.72 41.472 
" style="fill:none;stroke:#000000;stroke-linecap:square;stroke-linejoin:miter;stroke-width:0.8;"/>
   </g>
   <g id="patch_5">
    <path d="M 57.6 307.584 
L 414.72 307.584 
" style="fill:none;stroke:#000000;stroke-linecap:square;stroke-linejoin:miter;stroke-width:0.8;"/>
   </g>
   <g id="patch_6">
    <path d="M 57.6 41.472 
L 414.72 41.472 
" style="fill:none;stroke:#000000;stroke-linecap:square;stroke-linejoin:miter;stroke-width:0.8;"/>
   </g>
   <g id="text_18">
    <!-- Titre du graphique -->
    <defs>
     <path d="M -0.296875 72.90625 
L 61.375 72.90625 
L 61.375 64.59375 
L 35.5 64.59375 
L 35.5 0 
L 25.59375 0 
L 25.59375 64.59375 
L -0.296875 64.59375 
z
" id="DejaVuSans-54"/>
     <path d="M 9.421875 54.6875 
L 18.40625 54.6875 
L 18.40625 0 
L 9.421875 0 
z
M 9.421875 75.984375 
L 18.40625 75.984375 
L 18.40625 64.59375 
L 9.421875 64.59375 
z
" id="DejaVuSans-69"/>
     <path d="M 18.3125 70.21875 
L 18.3125 54.6875 
L 36.8125 54.6875 
L 36.8125 47.703125 
L 18.3125 47.703125 
L 18.3125 18.015625 
Q 18.3125 11.328125 20.140625 9.421875 
Q 21.96875 7.515625 27.59375 7.515625 
L 36.8125 7.515625 
L 36.8125 0 
L 27.59375 0 
Q 17.1875 0 13.234375 3.875 
Q 9.28125 7.765625 9.28125 18.015625 
L 9.28125 47.703125 
L 2.6875 47.703125 
L 2.6875 54.6875 
L 9.28125 54.6875 
L 9.28125 70.21875 
z
" id="DejaVuSans-74"/>
     <path d="M 41.109375 46.296875 
Q 39.59375 47.171875 37.8125 47.578125 
Q 36.03125 48 33.890625 48 
Q 26.265625 48 22.1875 43.046875 
Q 18.109375 38.09375 18.109375 28.8125 
L 18.109375 0 
L 9.078125 0 
L 9.078125 54.6875 
L 18.109375 54.6875 
L 18.109375 46.1875 
Q 20.953125 51.171875 25.484375 53.578125 
Q 30.03125 56 36.53125 56 
Q 37.453125 56 38.578125 55.875 
Q 39.703125 55.765625 41.0625 55.515625 
z
" id="DejaVuSans-72"/>
     <path d="M 45.40625 46.390625 
L 45.40625 75.984375 
L 54.390625 75.984375 
L 54.390625 0 
L 45.40625 0 
L 45.40625 8.203125 
Q 42.578125 3.328125 38.25 0.953125 
Q 33.9375 -1.421875 27.875 -1.421875 
Q 17.96875 -1.421875 11.734375 6.484375 
Q 5.515625 14.40625 5.515625 27.296875 
Q 5.515625 40.1875 11.734375 48.09375 
Q 17.96875 56 27.875 56 
Q 33.9375 56 38.25 53.625 
Q 42.578125 51.265625 45.40625 46.390625 
z
M 14.796875 27.296875 
Q 14.796875 17.390625 18.875 11.75 
Q 22.953125 6.109375 30.078125 6.109375 
Q 37.203125 6.109375 41.296875 11.75 
Q 45.40625 17.390625 45.40625 27.296875 
Q 45.40625 37.203125 41.296875 42.84375 
Q 37.203125 48.484375 30.078125 48.484375 
Q 22.953125 48.484375 18.875 42.84375 
Q 14.796875 37.203125 14.796875 27.296875 
z
" id="DejaVuSans-64"/>
     <path d="M 8.5 21.578125 
L 8.5 54.6875 
L 17.484375 54.6875 
L 17.484375 21.921875 
Q 17.484375 14.15625 20.5 10.265625 
Q 23.53125 6.390625 29.59375 6.390625 
Q 36.859375 6.390625 41.078125 11.03125 
Q 45.3125 15.671875 45.3125 23.6875 
L 45.3125 54.6875 
L 54.296875 54.6875 
L 54.296875 0 
L 45.3125 0 
L 45.3125 8.40625 
Q 42.046875 3.421875 37.71875 1 
Q 33.40625 -1.421875 27.6875 -1.421875 
Q 18.265625 -1.421875 13.375 4.4375 
Q 8.5 10.296875 8.5 21.578125 
z
M 31.109375 56 
z
" id="DejaVuSans-75"/>
     <path d="M 45.40625 27.984375 
Q 45.40625 37.75 41.375 43.109375 
Q 37.359375 48.484375 30.078125 48.484375 
Q 22.859375 48.484375 18.828125 43.109375 
Q 14.796875 37.75 14.796875 27.984375 
Q 14.796875 18.265625 18.828125 12.890625 
Q 22.859375 7.515625 30.078125 7.515625 
Q 37.359375 7.515625 41.375 12.890625 
Q 45.40625 18.265625 45.40625 27.984375 
z
M 54.390625 6.78125 
Q 54.390625 -7.171875 48.1875 -13.984375 
Q 42 -20.796875 29.203125 -20.796875 
Q 24.46875 -20.796875 20.265625 -20.09375 
Q 16.0625 -19.390625 12.109375 -17.921875 
L 12.109375 -9.1875 
Q 16.0625 -11.328125 19.921875 -12.34375 
Q 23.78125 -13.375 27.78125 -13.375 
Q 36.625 -13.375 41.015625 -8.765625 
Q 45.40625 -4.15625 45.40625 5.171875 
L 45.40625 9.625 
Q 42.625 4.78125 38.28125 2.390625 
Q 33.9375 0 27.875 0 
Q 17.828125 0 11.671875 7.65625 
Q 5.515625 15.328125 5.515625 27.984375 
Q 5.515625 40.671875 11.671875 48.328125 
Q 17.828125 56 27.875 56 
Q 33.9375 56 38.28125 53.609375 
Q 42.625 51.21875 45.40625 46.390625 
L 45.40625 54.6875 
L 54.390625 54.6875 
z
" id="DejaVuSans-67"/>
     <path d="M 18.109375 8.203125 
L 18.109375 -20.796875 
L 9.078125 -20.796875 
L 9.078125 54.6875 
L 18.109375 54.6875 
L 18.109375 46.390625 
Q 20.953125 51.265625 25.265625 53.625 
Q 29.59375 56 35.59375 56 
Q 45.5625 56 51.78125 48.09375 
Q 58.015625 40.1875 58.015625 27.296875 
Q 58.015625 14.40625 51.78125 6.484375 
Q 45.5625 -1.421875 35.59375 -1.421875 
Q 29.59375 -1.421875 25.265625 0.953125 
Q 20.953125 3.328125 18.109375 8.203125 
z
M 48.6875 27.296875 
Q 48.6875 37.203125 44.609375 42.84375 
Q 40.53125 48.484375 33.40625 48.484375 
Q 26.265625 48.484375 22.1875 42.84375 
Q 18.109375 37.203125 18.109375 27.296875 
Q 18.109375 17.390625 22.1875 11.75 
Q 26.265625 6.109375 33.40625 6.109375 
Q 40.53125 6.109375 44.609375 11.75 
Q 48.6875 17.390625 48.6875 27.296875 
z
" id="DejaVuSans-70"/>
     <path d="M 54.890625 33.015625 
L 54.890625 0 
L 45.90625 0 
L 45.90625 32.71875 
Q 45.90625 40.484375 42.875 44.328125 
Q 39.84375 48.1875 33.796875 48.1875 
Q 26.515625 48.1875 22.3125 43.546875 
Q 18.109375 38.921875 18.109375 30.90625 
L 18.109375 0 
L 9.078125 0 
L 9.078125 75.984375 
L 18.109375 75.984375 
L 18.109375 46.1875 
Q 21.34375 51.125 25.703125 53.5625 
Q 30.078125 56 35.796875 56 
Q 45.21875 56 50.046875 50.171875 
Q 54.890625 44.34375 54.890625 33.015625 
z
" id="DejaVuSans-68"/>
     <path d="M 14.796875 27.296875 
Q 14.796875 17.390625 18.875 11.75 
Q 22.953125 6.109375 30.078125 6.109375 
Q 37.203125 6.109375 41.296875 11.75 
Q 45.40625 17.390625 45.40625 27.296875 
Q 45.40625 37.203125 41.296875 42.84375 
Q 37.203125 48.484375 30.078125 48.484375 
Q 22.953125 48.484375 18.875 42.84375 
Q 14.796875 37.203125 14.796875 27.296875 
z
M 45.40625 8.203125 
Q 42.578125 3.328125 38.25 0.953125 
Q 33.9375 -1.421875 27.875 -1.421875 
Q 17.96875 -1.421875 11.734375 6.484375 
Q 5.515625 14.40625 5.515625 27.296875 
Q 5.515625 40.1875 11.734375 48.09375 
Q 17.96875 56 27.875 56 
Q 33.9375 56 38.25 53.625 
Q 42.578125 51.265625 45.40625 46.390625 
L 45.40625 54.6875 
L 54.390625 54.6875 
L 54.390625 -20.796875 
L 45.40625 -20.796875 
z
" id="DejaVuSans-71"/>
    </defs>
    <g transform="translate(180.362812 35.472)scale(0.12 -0.12)">
     <use xlink:href="#DejaVuSans-54"/>
     <use x="61.037109" xlink:href="#DejaVuSans-69"/>
     <use x="88.820312" xlink:href="#DejaVuSans-74"/>
     <use x="128.029297" xlink:href="#DejaVuSans-72"/>
     <use x="169.111328" xlink:href="#DejaVuSans-65"/>
     <use x="230.634766" xlink:href="#DejaVuSans-20"/>
     <use x="262.421875" xlink:href="#DejaVuSans-64"/>
     <use x="325.898438" xlink:href="#DejaVuSans-75"/>
     <use x="389.277344" xlink:href="#DejaVuSans-20"/>
     <use x="421.064453" xlink:href="#DejaVuSans-67"/>
     <use x="484.541016" xlink:href="#DejaVuSans-72"/>
     <use x="525.654297" xlink:href="#DejaVuSans-61"/>
     <use x="586.933594" xlink:href="#DejaVuSans-70"/>
     <use x="650.410156" xlink:href="#DejaVuSans-68"/>
     <use x="713.789062" xlink:href="#DejaVuSans-69"/>
     <use x="741.572266" xlink:href="#DejaVuSans-71"/>
     <use x="805.048828" xlink:href="#DejaVuSans-75"/>
     <use x="868.427734" xlink:href="#DejaVuSans-65"/>
    </g>
   </g>
   <g id="legend_1">
    <g id="patch_7">
     <path d="M 64.6 93.506375 
L 140.707812 93.506375 
Q 142.707812 93.506375 142.707812 91.506375 
L 142.707812 48.472 
Q 142.707812 46.472 140.707812 46.472 
L 64.6 46.472 
Q 62.6 46.472 62.6 48.472 
L 62.6 91.506375 
Q 62.6 93.506375 64.6 93.506375 
z
" style="fill:#ffffff;opacity:0.8;stroke:#cccccc;stroke-linejoin:miter;"/>
    </g>
    <g id="line2d_34">
     <path d="M 66.6 54.570438 
L 86.6 54.570438 
" style="fill:none;stroke:#0000ff;stroke-linecap:square;stroke-width:1.5;"/>
    </g>
    <g id="line2d_35">
     <g>
      <use style="fill:#0000ff;stroke:#0000ff;" x="76.6" xlink:href="#m1f5aa5dbf4" y="54.570438"/>
     </g>
    </g>
    <g id="text_19">
     <!-- courbe 1 -->
     <defs>
      <path d="M 48.78125 52.59375 
L 48.78125 44.1875 
Q 44.96875 46.296875 41.140625 47.34375 
Q 37.3125 48.390625 33.40625 48.390625 
Q 24.65625 48.390625 19.8125 42.84375 
Q 14.984375 37.3125 14.984375 27.296875 
Q 14.984375 17.28125 19.8125 11.734375 
Q 24.65625 6.203125 33.40625 6.203125 
Q 37.3125 6.203125 41.140625 7.25 
Q 44.96875 8.296875 48.78125 10.40625 
L 48.78125 2.09375 
Q 45.015625 0.34375 40.984375 -0.53125 
Q 36.96875 -1.421875 32.421875 -1.421875 
Q 20.0625 -1.421875 12.78125 6.34375 
Q 5.515625 14.109375 5.515625 27.296875 
Q 5.515625 40.671875 12.859375 48.328125 
Q 20.21875 56 33.015625 56 
Q 37.15625 56 41.109375 55.140625 
Q 45.0625 54.296875 48.78125 52.59375 
z
" id="DejaVuSans-63"/>
      <path d="M 30.609375 48.390625 
Q 23.390625 48.390625 19.1875 42.75 
Q 14.984375 37.109375 14.984375 27.296875 
Q 14.984375 17.484375 19.15625 11.84375 
Q 23.34375 6.203125 30.609375 6.203125 
Q 37.796875 6.203125 41.984375 11.859375 
Q 46.1875 17.53125 46.1875 27.296875 
Q 46.1875 37.015625 41.984375 42.703125 
Q 37.796875 48.390625 30.609375 48.390625 
z
M 30.609375 56 
Q 42.328125 56 49.015625 48.375 
Q 55.71875 40.765625 55.71875 27.296875 
Q 55.71875 13.875 49.015625 6.21875 
Q 42.328125 -1.421875 30.609375 -1.421875 
Q 18.84375 -1.421875 12.171875 6.21875 
Q 5.515625 13.875 5.515625 27.296875 
Q 5.515625 40.765625 12.171875 48.375 
Q 18.84375 56 30.609375 56 
z
" id="DejaVuSans-6f"/>
      <path d="M 48.6875 27.296875 
Q 48.6875 37.203125 44.609375 42.84375 
Q 40.53125 48.484375 33.40625 48.484375 
Q 26.265625 48.484375 22.1875 42.84375 
Q 18.109375 37.203125 18.109375 27.296875 
Q 18.109375 17.390625 22.1875 11.75 
Q 26.265625 6.109375 33.40625 6.109375 
Q 40.53125 6.109375 44.609375 11.75 
Q 48.6875 17.390625 48.6875 27.296875 
z
M 18.109375 46.390625 
Q 20.953125 51.265625 25.265625 53.625 
Q 29.59375 56 35.59375 56 
Q 45.5625 56 51.78125 48.09375 
Q 58.015625 40.1875 58.015625 27.296875 
Q 58.015625 14.40625 51.78125 6.484375 
Q 45.5625 -1.421875 35.59375 -1.421875 
Q 29.59375 -1.421875 25.265625 0.953125 
Q 20.953125 3.328125 18.109375 8.203125 
L 18.109375 0 
L 9.078125 0 
L 9.078125 75.984375 
L 18.109375 75.984375 
z
" id="DejaVuSans-62"/>
     </defs>
     <g transform="translate(94.6 58.070438)scale(0.1 -0.1)">
      <use xlink:href="#DejaVuSans-63"/>
      <use x="54.980469" xlink:href="#DejaVuSans-6f"/>
      <use x="116.162109" xlink:href="#DejaVuSans-75"/>
      <use x="179.541016" xlink:href="#DejaVuSans-72"/>
      <use x="220.654297" xlink:href="#DejaVuSans-62"/>
      <use x="284.130859" xlink:href="#DejaVuSans-65"/>
      <use x="345.654297" xlink:href="#DejaVuSans-20"/>
      <use x="377.441406" xlink:href="#DejaVuSans-31"/>
     </g>
    </g>
    <g id="line2d_36">
     <path d="M 66.6 69.248563 
L 86.6 69.248563 
" style="fill:none;stroke:#ff0000;stroke-dasharray:5.55,2.4;stroke-dashoffset:0;stroke-width:1.5;"/>
    </g>
    <g id="line2d_37">
     <g>
      <use style="fill:#ff0000;stroke:#ff0000;" x="76.6" xlink:href="#mae791ef67b" y="69.248563"/>
     </g>
    </g>
    <g id="text_20">
     <!-- courbe 2 -->
     <g transform="translate(94.6 72.748563)scale(0.1 -0.1)">
      <use xlink:href="#DejaVuSans-63"/>
      <use x="54.980469" xlink:href="#DejaVuSans-6f"/>
      <use x="116.162109" xlink:href="#DejaVuSans-75"/>
      <use x="179.541016" xlink:href="#DejaVuSans-72"/>
      <use x="220.654297" xlink:href="#DejaVuSans-62"/>
      <use x="284.130859" xlink:href="#DejaVuSans-65"/>
      <use x="345.654297" xlink:href="#DejaVuSans-20"/>
      <use x="377.441406" xlink:href="#DejaVuSans-32"/>
     </g>
    </g>
    <g id="line2d_38">
     <path d="M 66.6 83.926688 
L 86.6 83.926688 
" style="fill:none;stroke:#008000;stroke-dasharray:9.6,2.4,1.5,2.4;stroke-dashoffset:0;stroke-width:1.5;"/>
    </g>
    <g id="line2d_39">
     <g>
      <use style="fill:#008000;stroke:#008000;stroke-linejoin:miter;" x="76.6" xlink:href="#m28c6256c09" y="83.926688"/>
     </g>
    </g>
    <g id="text_21">
     <!-- courbe 3 -->
     <g transform="translate(94.6 87.426688)scale(0.1 -0.1)">
      <use xlink:href="#DejaVuSans-63"/>
      <use x="54.980469" xlink:href="#DejaVuSans-6f"/>
      <use x="116.162109" xlink:href="#DejaVuSans-75"/>
      <use x="179.541016" xlink:href="#DejaVuSans-72"/>
      <use x="220.654297" xlink:href="#DejaVuSans-62"/>
      <use x="284.130859" xlink:href="#DejaVuSans-65"/>
      <use x="345.654297" xlink:href="#DejaVuSans-20"/>
      <use x="377.441406" xlink:href="#DejaVuSans-33"/>
     </g>
    </g>
   </g>
  </g>
 </g>
 <defs>
  <clipPath id="p4028e83679">
   <rect height="266.112" width="357.12" x="57.6" y="41.472"/>
  </clipPath>
 </defs>
</svg>
